<svg xmlns="http://www.w3.org/2000/svg" data-name="Layer 1" viewBox="0 0 512 512"><path fill="#f2f2f2" d="M463.5,37.5v243h-273V37.5a30,30,0,0,1,30-30h213A30,30,0,0,1,463.5,37.5Z"/><path fill="#dedede" d="M403.5,74.76V280.5h-213V44.76h183A30,30,0,0,1,403.5,74.76Z"/><rect width="273" height="273" x="115.5" y="59.76" fill="#f2f2f2" rx="30"/><path fill="#dedede" d="M343.5,119.76v213h-198a30,30,0,0,1-30-30v-213h198A30,30,0,0,1,343.5,119.76Z"/><rect width="273" height="273" x="55.5" y="104.76" fill="#f2f2f2" rx="30"/><path fill="#ffe966" d="M459.5,504.5H52.5a30,30,0,0,1-30-30v-241a30,30,0,0,1,30-30H202.86a30,30,0,0,1,21.47,9.05l40.88,41.9a30,30,0,0,0,21.48,9.05H459.5a30,30,0,0,1,30,30v181A30,30,0,0,1,459.5,504.5Z"/><path fill="#ffe236" d="M235.21 254.45a30 30 0 0 0 21.48 9.05h30a30 30 0 0 1-21.48-9.05l-40.88-41.9a30 30 0 0 0-21.47-9.05h-30a30 30 0 0 1 21.47 9.05zM459.5 263.5h-30a30 30 0 0 1 30 30v181a30 30 0 0 1-30 30h30a30 30 0 0 0 30-30v-181A30 30 0 0 0 459.5 263.5z"/><rect width="155.02" height="116.75" x="178.49" y="339.61" fill="#ffc166" rx="11.52"/><path fill="#ffb74e" d="M322,339.61H292a11.52,11.52,0,0,1,11.52,11.52v93.71A11.53,11.53,0,0,1,292,456.36h30a11.53,11.53,0,0,0,11.52-11.52V351.13A11.52,11.52,0,0,0,322,339.61Z"/><path fill="#ffae36" d="M333.51,351.13v23.52l-61.83,30.84H240.32l-61.83-30.84V351.13A11.52,11.52,0,0,1,190,339.61H322A11.52,11.52,0,0,1,333.51,351.13Z"/><path fill="#ffa41f" d="M322,339.61H292a11.52,11.52,0,0,1,11.52,11.52v38.48l30-15V351.13A11.52,11.52,0,0,0,322,339.61Z"/><rect width="31.35" height="31.35" x="240.32" y="395.42" fill="#676e87" rx="7"/><path fill="#595f74" d="M264.68,395.42h-15a7,7,0,0,1,7,7v17.35a7,7,0,0,1-7,7h15a7,7,0,0,0,7-7V402.42A7,7,0,0,0,264.68,395.42Z"/><path fill="#272a33" d="M100.5,147.5h183a7.5,7.5,0,0,0,0-15h-183a7.5,7.5,0,0,0,0,15ZM471,257.81V37.5A37.54,37.54,0,0,0,433.5,0h-213A37.54,37.54,0,0,0,183,37.5V52.26H145.5A37.54,37.54,0,0,0,108,89.76v7.5H85.5A37.54,37.54,0,0,0,48,134.76v61.52A37.55,37.55,0,0,0,15,233.5v241A37.54,37.54,0,0,0,52.5,512h407A37.54,37.54,0,0,0,497,474.5v-181A37.56,37.56,0,0,0,471,257.81ZM198,37.5A22.52,22.52,0,0,1,220.5,15h213A22.52,22.52,0,0,1,456,37.5V256H396V89.76a37.54,37.54,0,0,0-37.5-37.5H198ZM123,89.76a22.52,22.52,0,0,1,22.5-22.5h213A22.52,22.52,0,0,1,381,89.76V256H336V134.76a37.54,37.54,0,0,0-37.5-37.5H123Zm-60,45a22.52,22.52,0,0,1,22.5-22.5h213a22.52,22.52,0,0,1,22.5,22.5V256H286.69a22.61,22.61,0,0,1-16.11-6.79l-40.88-41.9A37.72,37.72,0,0,0,202.86,196H63ZM482,474.5A22.52,22.52,0,0,1,459.5,497H52.5A22.52,22.52,0,0,1,30,474.5v-241A22.52,22.52,0,0,1,52.5,211H202.86a22.61,22.61,0,0,1,16.1,6.79l40.89,41.9A37.69,37.69,0,0,0,286.69,271H459.5A22.52,22.52,0,0,1,482,293.5ZM322,332.11H303.71v-7.73a20.25,20.25,0,0,0-20.23-20.23h-55a20.25,20.25,0,0,0-20.23,20.23v7.73H190a19,19,0,0,0-19,19v93.7a19,19,0,0,0,19,19H322a19,19,0,0,0,19-19v-93.7A19,19,0,0,0,322,332.11Zm-98.7-7.73a5.23,5.23,0,0,1,5.23-5.23h55a5.23,5.23,0,0,1,5.23,5.23v7.73H223.29ZM326,444.83a4,4,0,0,1-4,4H190a4,4,0,0,1-4-4V386.76l46.83,23.37v9.64a14.52,14.52,0,0,0,14.5,14.5h17.36a14.52,14.52,0,0,0,14.5-14.5v-9.64L326,386.76Zm-78.19-25.56V402.92h16.36v16.35ZM326,370l-49.18,24.54a14.49,14.49,0,0,0-12.15-6.62H247.32a14.49,14.49,0,0,0-12.15,6.62L186,370V351.13a4,4,0,0,1,4-4H322a4,4,0,0,1,4,4ZM291,170a7.5,7.5,0,0,0-7.5-7.5h-183a7.5,7.5,0,0,0,0,15h183A7.5,7.5,0,0,0,291,170Z"/></svg>