<svg xmlns="http://www.w3.org/2000/svg" data-name="Layer 1" viewBox="0 0 512 512"><path d="M496.71,419.72,494,392c-.09-.89-.18-1.77-.29-2.57-4.8-38.42-33.89-70.57-72.4-80l-.36-.08-52.07-10a13.44,13.44,0,0,0-2-2.13l-25.05-21.1a13.78,13.78,0,0,0-16.8-.47l-3.44-5.07a84,84,0,0,0,33.53-67.1V187.59h11.14a20.43,20.43,0,0,0,20.41-20.41V138.36a20.44,20.44,0,0,0-20.41-20.42H355.12V47.5A47.51,47.51,0,0,0,333.07,7.42c-.25-.17-.5-.34-.77-.49A47.27,47.27,0,0,0,307.62,0H204.38a47.56,47.56,0,0,0-47.5,47.5v70.44H145.74a20.44,20.44,0,0,0-20.42,20.42v28.82a20.43,20.43,0,0,0,20.42,20.41h11.14v15.88a83.93,83.93,0,0,0,34.26,67.64l-3.42,5.13a13.76,13.76,0,0,0-17.55-.13l-25,21.1a13.53,13.53,0,0,0-2.49,2.77l-51.51,9.38-.44.1c-38.5,9.42-67.6,41.56-72.41,80-.11.87-.21,1.75-.29,2.57l-2.69,27.66c0,.24,0,.48,0,.73v48.34A43.36,43.36,0,0,0,58.68,512H453.32a43.36,43.36,0,0,0,43.42-43.21V420.45C496.74,420.2,496.73,420,496.71,419.72ZM355.12,132.94h11.14a5.42,5.42,0,0,1,5.41,5.42v28.82a5.41,5.41,0,0,1-5.41,5.41H355.12ZM156.88,172.59H145.74a5.42,5.42,0,0,1-5.42-5.41V138.36a5.42,5.42,0,0,1,5.42-5.42h11.14ZM333.15,288.41l23,19.39-51.56,74.78L267.08,346.7ZM256,356.85l17.42,16.66L260.47,386.2a6.41,6.41,0,0,1-8.94,0l-12.95-12.69Zm0-20.38-56.93-50.22,4.9-7.34a83.46,83.46,0,0,0,36.91,8.56h30.23a83.46,83.46,0,0,0,37.72-9l4.84,7.11Zm75.53-311a32.36,32.36,0,0,1,8.59,22V89.42a44.68,44.68,0,0,1-37.77-21.69A163,163,0,0,0,322,42.66,162.38,162.38,0,0,0,331.53,25.52Zm-159.65,22A32.54,32.54,0,0,1,204.38,15H307.62A32.29,32.29,0,0,1,319,17a147.41,147.41,0,0,1-9.56,17.56A147.93,147.93,0,0,1,288,60.94,125.3,125.3,0,0,1,250,85.1c-31.05,12.55-60.52,9.51-78.08,5.55Zm0,156V106c19.79,4,50.89,6.28,83.7-7a139.56,139.56,0,0,0,35.56-21,59.57,59.57,0,0,0,49,26.4v99.05a69,69,0,0,1-32.39,58.44,7.14,7.14,0,0,0-.79.47l-.26.2a68.59,68.59,0,0,1-35.57,9.89H240.88A69.07,69.07,0,0,1,171.88,203.47Zm7,84.94,5.33,4.71,0,0,60.68,53.54-37.52,35.88L155.83,307.8ZM210.42,497H113.27V431.6a9,9,0,0,0-18,0V497H58.68a28.35,28.35,0,0,1-28.42-28.21v-48l2.66-27.36c.07-.73.15-1.45.23-2.14,4-32.22,28.49-59.21,60.88-67.23l48.69-8.87L196,392.55h0a13.47,13.47,0,0,0,9.74,5.76,12.75,12.75,0,0,0,1.38.07,13.52,13.52,0,0,0,9.33-3.74l11.24-10.75,9.23,9Zm15.48,0,24.19-94.84a21.71,21.71,0,0,0,11.82,0L286.1,497Zm255.84-28.21A28.35,28.35,0,0,1,453.32,497H416.68V431.6a9,9,0,0,0-18,0V497H301.58L275,392.93l9.22-9.05,11.25,10.76a13.48,13.48,0,0,0,9.33,3.74,12.88,12.88,0,0,0,1.38-.07,13.47,13.47,0,0,0,9.74-5.76h0l53.33-77.35c.1-.15.19-.31.28-.46l48.36,9.33c32.42,8,56.88,35,60.91,67.32.1.72.17,1.44.25,2.12l2.65,27.3ZM229.21,224.32a48.9,48.9,0,0,0,26,8h.86a49.59,49.59,0,0,0,26.87-8A8.89,8.89,0,0,0,285.47,212,9,9,0,0,0,273,209.42a30.84,30.84,0,0,1-33.93,0A9,9,0,0,0,226.66,212,8.9,8.9,0,0,0,229.21,224.32Zm66.71-66.53a9,9,0,0,0,9-8.93V137.34a9,9,0,0,0-18,0v11.52A9,9,0,0,0,295.92,157.79Zm-79.84,0a9,9,0,0,0,9-8.93V137.34a9,9,0,0,0-18,0v11.52A9,9,0,0,0,216.08,157.79Z"/></svg>